<svg width="19" height="19" viewBox="0 0 19 19" fill="none" xmlns="http://www.w3.org/2000/svg">
<path d="M3.81691 17.5004L18.18 3.13728C18.4851 2.83217 18.4851 2.33754 18.18 2.03243L16.799 0.651361C16.4938 0.346249 15.9992 0.346249 15.6941 0.651361L1.33099 15.0145C1.02588 15.3196 1.02588 15.8142 1.33099 16.1193L2.71206 17.5004C3.01717 17.8055 3.5118 17.8055 3.81691 17.5004Z" fill="white"/>
<path d="M18.4015 14.9155L4.03835 0.552402C3.73323 0.247289 3.2386 0.247289 2.93349 0.552402L1.55242 1.93347C1.24731 2.23858 1.24731 2.73321 1.55242 3.03832L15.9155 17.4014C16.2206 17.7065 16.7153 17.7065 17.0204 17.4014L18.4015 16.0204C18.7066 15.7152 18.7066 15.2206 18.4015 14.9155Z" fill="white"/>
</svg>
