<svg width="22" height="13" viewBox="0 0 22 13" fill="none" xmlns="http://www.w3.org/2000/svg">
<path d="M0.78125 3.51562H21.0938C21.5252 3.51562 21.875 3.16587 21.875 2.73438V0.78125C21.875 0.349756 21.5252 0 21.0938 0H0.78125C0.349756 0 0 0.349756 0 0.78125V2.73438C0 3.16587 0.349756 3.51562 0.78125 3.51562Z" fill="white"/>
<path d="M21.0938 12.5156H0.78125C0.349756 12.5156 0 12.1659 0 11.7344V9.78125C0 9.34976 0.349756 9 0.78125 9H21.0938C21.5252 9 21.875 9.34976 21.875 9.78125V11.7344C21.875 12.1659 21.5252 12.5156 21.0938 12.5156Z" fill="white"/>
</svg>
