<?xml version="1.0" encoding="UTF-8"?>
<!DOCTYPE svg PUBLIC "-//W3C//DTD SVG 1.1//EN" "http://www.w3.org/Graphics/SVG/1.1/DTD/svg11.dtd">
<svg xmlns="http://www.w3.org/2000/svg" version="1.1" width="3098px" height="1095px" style="shape-rendering:geometricPrecision; text-rendering:geometricPrecision; image-rendering:optimizeQuality; fill-rule:evenodd; clip-rule:evenodd" xmlns:xlink="http://www.w3.org/1999/xlink">
<g><path style="opacity:1" fill="#f8bf17" d="M 805.5,63.5 C 830.741,61.774 853.741,67.9407 874.5,82C 898.205,103.629 906.039,130.129 898,161.5C 891.419,182.997 881.419,202.663 868,220.5C 847.32,247.186 824.486,272.019 799.5,295C 834.799,311.396 865.966,333.562 893,361.5C 912.212,382.927 924.212,407.927 929,436.5C 931.658,472.195 920.991,503.195 897,529.5C 894.863,528.521 893.029,527.188 891.5,525.5C 920.144,472.817 912.477,426.317 868.5,386C 837.349,361.42 802.682,343.086 764.5,331C 742.734,324.225 720.734,318.392 698.5,313.5C 728.035,287.47 756.535,260.136 784,231.5C 802.508,212.129 818.842,191.129 833,168.5C 837.159,161.184 840.492,153.517 843,145.5C 845.614,136.374 843.114,129.208 835.5,124C 760.962,112.957 697.795,134.79 646,189.5C 611.502,227.821 585.169,271.154 567,319.5C 589.469,306.508 613.636,301.008 639.5,303C 654.882,306.053 666.715,314.219 675,327.5C 678.478,334.146 681.645,340.813 684.5,347.5C 778.994,340.666 840.828,382.332 870,472.5C 880.067,504.502 883.4,537.169 880,570.5C 876.5,600.009 866.5,627.009 850,651.5C 843.749,659.753 836.249,666.586 827.5,672C 822.783,674.42 818.449,673.92 814.5,670.5C 806.809,654.318 797.309,639.318 786,625.5C 764.333,599.167 742.667,572.833 721,546.5C 719.317,558.809 717.817,571.143 716.5,583.5C 716.326,585.693 716.993,587.527 718.5,589C 733.925,598.795 749.092,608.962 764,619.5C 764.422,622.236 764.422,624.902 764,627.5C 802.446,667.064 825.446,714.398 833,769.5C 839.987,818.952 835.32,867.285 819,914.5C 814.095,919.972 807.928,922.639 800.5,922.5C 736.545,919.91 679.378,899.243 629,860.5C 617.053,934.268 582.553,994.768 525.5,1042C 519.627,1042.95 513.96,1042.28 508.5,1040C 469.667,1014.5 437.5,982.333 412,943.5C 385.299,900.706 371.633,854.039 371,803.5C 314.102,836.546 252.935,848.713 187.5,840C 168.56,837.279 149.893,833.279 131.5,828C 121.883,824.464 117.217,817.464 117.5,807C 120.628,732.29 147.462,667.79 198,613.5C 205.87,605.961 214.037,598.794 222.5,592C 152.52,563.689 101.686,515.189 70,446.5C 60.011,424.534 52.8443,401.701 48.5,378C 48.1441,372.879 49.6441,368.379 53,364.5C 119.269,326.651 189.769,315.817 264.5,332C 282.644,336.159 299.977,342.492 316.5,351C 343.965,352.699 369.965,359.699 394.5,372C 402.521,376.351 409.688,381.851 416,388.5C 416.833,386.833 417.667,385.167 418.5,383.5C 413.278,360.388 402.778,340.055 387,322.5C 371.807,306.296 355.14,291.963 337,279.5C 337.335,276.745 338.335,274.078 340,271.5C 369.953,289.787 394.287,313.787 413,343.5C 417.515,351.885 421.349,360.552 424.5,369.5C 445.55,336.816 474.883,325.649 512.5,336C 517.731,338.231 522.731,340.897 527.5,344C 528.5,344.667 529.5,344.667 530.5,344C 537.297,337.77 544.63,332.27 552.5,327.5C 560.616,258.972 586.45,198.306 630,145.5C 668.125,102.847 715.625,77.0135 772.5,68C 783.593,66.0734 794.593,64.5734 805.5,63.5 Z M 417.5,445.5 C 401.131,419.673 381.131,396.84 357.5,377C 350.833,372.333 344.167,367.667 337.5,363C 366.605,366.028 391.771,377.528 413,397.5C 411.197,413.838 412.697,429.838 417.5,445.5 Z M 764.5,367.5 C 786.441,375.932 805.275,388.932 821,406.5C 815.343,452.644 796.177,492.144 763.5,525C 755.068,532.757 745.568,538.924 735,543.5C 733.056,542.561 731.389,541.227 730,539.5C 726.992,536.141 724.492,532.474 722.5,528.5C 724.776,511.519 726.942,494.519 729,477.5C 751.937,444.519 763.77,407.853 764.5,367.5 Z M 438.5,510.5 C 431.863,505.384 424.53,504.218 416.5,507C 396.911,514.53 377.244,521.863 357.5,529C 269.787,555.764 199.62,531.931 147,457.5C 137.698,443.231 129.698,428.231 123,412.5C 121.789,405.088 124.622,399.921 131.5,397C 166.595,386.171 202.261,383.505 238.5,389C 283.323,397.532 318.99,420.198 345.5,457C 331.248,468.422 314.914,474.756 296.5,476C 283.967,476.804 271.467,476.638 259,475.5C 257.174,476.01 257.007,476.844 258.5,478C 298.151,503.168 339.484,506.168 382.5,487C 390.319,483.59 397.986,479.923 405.5,476C 413.695,472.36 421.695,472.693 429.5,477C 434.451,487.637 437.451,498.804 438.5,510.5 Z M 449.5,399.5 C 460.861,399.679 468.028,405.346 471,416.5C 474.86,429.776 472.36,441.609 463.5,452C 453.963,458.724 445.796,457.224 439,447.5C 430.599,431.57 432.099,416.737 443.5,403C 445.432,401.541 447.432,400.375 449.5,399.5 Z M 544.5,470.5 C 546.757,471.562 547.923,473.228 548,475.5C 537.167,491.833 526.333,508.167 515.5,524.5C 527.306,541.472 539.306,558.306 551.5,575C 549.932,581.538 548.932,588.204 548.5,595C 548.069,602.805 551.069,608.805 557.5,613C 561.683,614.796 566.016,616.129 570.5,617C 595.489,619.998 620.156,624.665 644.5,631C 716.264,652.264 758.597,699.764 771.5,773.5C 774.796,796.436 775.296,819.436 773,842.5C 771.355,850.152 766.689,854.152 759,854.5C 713.683,844.849 675.017,823.516 643,790.5C 635.015,781.2 628.015,771.2 622,760.5C 617.452,746.188 612.119,732.188 606,718.5C 604.291,711.246 603.124,703.912 602.5,696.5C 623.537,691.447 643.871,693.614 663.5,703C 674.564,707.946 685.064,713.779 695,720.5C 679.858,688.385 655.024,667.218 620.5,657C 598.696,652.208 576.696,648.875 554.5,647C 534.692,627.683 513.026,610.849 489.5,596.5C 490.06,594.146 490.727,591.813 491.5,589.5C 498.5,584 505.5,578.5 512.5,573C 513.804,572.196 514.471,571.029 514.5,569.5C 508.988,547.119 503.321,524.785 497.5,502.5C 510.669,497.247 523.002,490.414 534.5,482C 538.416,478.59 541.749,474.757 544.5,470.5 Z M 668.5,567.5 C 652.704,562.383 636.704,557.883 620.5,554C 612.333,545.833 604.167,537.667 596,529.5C 596.422,516.452 597.589,503.452 599.5,490.5C 617.799,489.967 634.965,485.3 651,476.5C 657.033,499.469 662.533,522.635 667.5,546C 666.468,550.262 665.135,554.429 663.5,558.5C 665.445,561.393 667.111,564.393 668.5,567.5 Z M 669.5,478.5 C 674.724,485.257 679.724,492.257 684.5,499.5C 682,506.5 679.5,513.5 677,520.5C 673.971,506.667 671.471,492.667 669.5,478.5 Z M 859.5,481.5 C 869.374,511.398 872.207,542.065 868,573.5C 867.472,577.943 866.472,582.277 865,586.5C 851.473,602.375 834.973,613.875 815.5,621C 809.948,622.846 804.281,623.512 798.5,623C 789.213,610.711 779.546,598.711 769.5,587C 790.442,580.277 807.942,568.444 822,551.5C 839.461,530.917 851.961,507.584 859.5,481.5 Z M 561.5,482.5 C 568.725,486.353 576.392,489.02 584.5,490.5C 584.833,493.5 585.167,496.5 585.5,499.5C 584.824,510.868 584.324,522.201 584,533.5C 590.5,539.333 597,545.167 603.5,551C 590.544,549.793 577.544,549.126 564.5,549C 561.452,549.606 558.952,551.106 557,553.5C 555.053,557.284 553.72,561.284 553,565.5C 544.959,551.917 536.792,538.417 528.5,525C 540.097,511.244 551.097,497.077 561.5,482.5 Z M 708.5,502.5 C 709.641,505.64 709.808,508.973 709,512.5C 707.859,510.391 706.359,508.558 704.5,507C 706.041,505.629 707.375,504.129 708.5,502.5 Z M 438.5,510.5 C 455.07,511.882 471.237,509.882 487,504.5C 495.35,525.884 502.683,547.551 509,569.5C 503.302,575.532 497.302,581.199 491,586.5C 491.552,581.577 491.552,576.577 491,571.5C 488.856,564.363 484.022,560.529 476.5,560C 469.563,558.379 462.563,557.212 455.5,556.5C 452.585,540.081 446.918,524.747 438.5,510.5 Z M 694.5,513.5 C 699.273,519.526 703.94,525.693 708.5,532C 707.517,547.858 706.184,563.691 704.5,579.5C 697.53,575.029 690.696,570.362 684,565.5C 682.558,559.751 681.391,553.917 680.5,548C 685.034,536.434 689.701,524.934 694.5,513.5 Z M 420.5,579.5 C 419.463,612.489 412.63,644.822 400,676.5C 372.378,736.599 325.545,770.766 259.5,779C 240.862,780.538 222.195,780.872 203.5,780C 190.99,779.83 185.157,773.664 186,761.5C 195.76,720.131 215.26,684.298 244.5,654C 272.626,627.775 305.959,612.608 344.5,608.5C 348.327,623.259 347.827,637.925 343,652.5C 338.052,668.729 330.719,683.729 321,697.5C 320.312,698.332 320.479,698.998 321.5,699.5C 351.852,683.977 372.352,659.977 383,627.5C 385.496,615.527 387.83,603.527 390,591.5C 400.52,588.148 410.687,584.148 420.5,579.5 Z M 473.5,670.5 C 503.589,691.089 528.423,716.756 548,747.5C 552.174,759.515 557.174,771.181 563,782.5C 574.357,824.671 571.023,865.671 553,905.5C 544.489,924.311 533.989,941.811 521.5,958C 516.05,962.112 510.383,962.446 504.5,959C 473.153,929.82 451.32,894.653 439,853.5C 429.399,815.441 433.065,778.774 450,743.5C 461.103,748.891 470.77,756.224 479,765.5C 490.236,780.635 499.403,796.968 506.5,814.5C 513.602,767.293 498.602,728.793 461.5,699C 466.379,689.859 470.379,680.359 473.5,670.5 Z"/></g>
<g><path style="opacity:1" fill="#f8bf17" d="M 1084.5,274.5 C 1120.5,274.333 1156.5,274.5 1192.5,275C 1195.12,276.488 1196.46,278.821 1196.5,282C 1189.8,333.806 1183.3,385.639 1177,437.5C 1176.18,440.882 1176.34,444.216 1177.5,447.5C 1208.84,393.491 1239.67,339.158 1270,284.5C 1271.56,281.217 1273.73,278.383 1276.5,276C 1296.08,274.845 1315.75,274.345 1335.5,274.5C 1354.5,274.667 1373.5,274.833 1392.5,275C 1394.22,275.775 1395.22,277.108 1395.5,279C 1394.72,281.995 1393.56,284.828 1392,287.5C 1349.7,357.933 1307.53,428.433 1265.5,499C 1290.08,588.145 1314.58,677.311 1339,766.5C 1339.87,769.961 1339.04,772.961 1336.5,775.5C 1297.87,776.66 1259.21,776.827 1220.5,776C 1219.07,775.535 1217.9,774.701 1217,773.5C 1202.36,716.262 1188.02,658.929 1174,601.5C 1173.59,601.043 1173.09,600.709 1172.5,600.5C 1166.18,609.123 1160.35,618.123 1155,627.5C 1154.03,629.392 1153.36,631.392 1153,633.5C 1147.58,677.157 1142.25,720.823 1137,764.5C 1137.16,769.348 1135.32,773.182 1131.5,776C 1095.5,776.667 1059.5,776.667 1023.5,776C 1021.29,774.418 1019.96,772.251 1019.5,769.5C 1039.75,606.515 1059.91,443.515 1080,280.5C 1081.33,278.34 1082.83,276.34 1084.5,274.5 Z"/></g>
<g><path style="opacity:1" fill="#f8bf17" d="M 1530.5,274.5 C 1571.5,274.333 1612.5,274.5 1653.5,275C 1655,275.833 1656.17,277 1657,278.5C 1671,438.465 1684.66,598.465 1698,758.5C 1698.67,763.5 1698.67,768.5 1698,773.5C 1697.17,774.333 1696.33,775.167 1695.5,776C 1658.17,776.667 1620.83,776.667 1583.5,776C 1582.67,775.167 1581.83,774.333 1581,773.5C 1579.78,750.524 1579.11,727.524 1579,704.5C 1578.25,703.874 1577.42,703.374 1576.5,703C 1551.83,702.333 1527.17,702.333 1502.5,703C 1501.38,703.249 1500.38,703.749 1499.5,704.5C 1492.57,726.798 1485.73,749.131 1479,771.5C 1478.17,773.667 1476.67,775.167 1474.5,776C 1438.13,776.827 1401.79,776.66 1365.5,775.5C 1364.35,772.554 1364.18,769.554 1365,766.5C 1418.13,604.771 1471.47,443.104 1525,281.5C 1525.97,278.379 1527.8,276.046 1530.5,274.5 Z M 1571.5,452.5 C 1572.5,452.414 1573.33,452.748 1574,453.5C 1575.34,504.844 1576.34,556.177 1577,607.5C 1576.5,608.667 1575.67,609.5 1574.5,610C 1558.5,610.5 1542.5,610.667 1526.5,610.5C 1541.09,557.723 1556.09,505.057 1571.5,452.5 Z"/></g>
<g><path style="opacity:1" fill="#f8bf17" d="M 1798.5,274.5 C 1834.83,274.333 1871.17,274.5 1907.5,275C 1908.7,275.903 1909.53,277.069 1910,278.5C 1895.03,409.78 1879.19,540.947 1862.5,672C 1863.17,672.667 1863.83,673.333 1864.5,674C 1913.5,674.333 1962.5,674.667 2011.5,675C 2013.76,676.779 2015.1,679.113 2015.5,682C 2011.38,711.453 2007.55,740.953 2004,770.5C 2002.88,772.624 2001.38,774.457 1999.5,776C 1912.17,776.667 1824.83,776.667 1737.5,776C 1736.67,775.167 1735.83,774.333 1735,773.5C 1734.33,769.5 1734.33,765.5 1735,761.5C 1754.67,601.5 1774.33,441.5 1794,281.5C 1794.9,278.767 1796.4,276.433 1798.5,274.5 Z"/></g>
<g><path style="opacity:1" fill="#f8bf17" d="M 2103.5,274.5 C 2190.17,274.333 2276.83,274.5 2363.5,275C 2364.7,275.903 2365.53,277.069 2366,278.5C 2366.67,282.833 2366.67,287.167 2366,291.5C 2362.67,317.5 2359.33,343.5 2356,369.5C 2355.21,371.587 2354.04,373.421 2352.5,375C 2303.58,376.324 2254.58,376.991 2205.5,377C 2202.97,379.574 2201.81,382.74 2202,386.5C 2198.34,415.133 2195.34,443.799 2193,472.5C 2220.09,473.329 2247.26,473.829 2274.5,474C 2275.93,474.465 2277.1,475.299 2278,476.5C 2278.67,480.833 2278.67,485.167 2278,489.5C 2274.5,516.146 2271.17,542.813 2268,569.5C 2267.31,572.196 2265.81,574.363 2263.5,576C 2236.5,576.333 2209.5,576.667 2182.5,577C 2181.38,577.249 2180.38,577.749 2179.5,578.5C 2175.1,609.253 2171.1,640.086 2167.5,671C 2167.75,672.326 2168.42,673.326 2169.5,674C 2218.25,674.009 2266.92,674.676 2315.5,676C 2316.98,678.247 2317.65,680.747 2317.5,683.5C 2314.36,713.297 2310.52,742.964 2306,772.5C 2304.79,774.049 2303.29,775.215 2301.5,776C 2215.17,776.667 2128.83,776.667 2042.5,776C 2040.74,774.992 2039.57,773.492 2039,771.5C 2058.58,607.832 2078.58,444.165 2099,280.5C 2100.33,278.34 2101.83,276.34 2103.5,274.5 Z"/></g>
<g><path style="opacity:1" fill="#f8bf17" d="M 2409.5,274.5 C 2445.5,274.333 2481.5,274.5 2517.5,275C 2520.12,276.488 2521.46,278.821 2521.5,282C 2514.8,333.806 2508.3,385.639 2502,437.5C 2501.18,440.882 2501.34,444.216 2502.5,447.5C 2533.84,393.491 2564.67,339.158 2595,284.5C 2596.56,281.217 2598.73,278.383 2601.5,276C 2621.08,274.845 2640.75,274.345 2660.5,274.5C 2679.5,274.667 2698.5,274.833 2717.5,275C 2719.22,275.775 2720.22,277.108 2720.5,279C 2719.72,281.995 2718.56,284.828 2717,287.5C 2674.7,357.933 2632.53,428.433 2590.5,499C 2615.08,588.145 2639.58,677.311 2664,766.5C 2664.87,769.961 2664.04,772.961 2661.5,775.5C 2622.87,776.66 2584.21,776.827 2545.5,776C 2544.07,775.535 2542.9,774.701 2542,773.5C 2527.36,716.262 2513.02,658.929 2499,601.5C 2498.59,601.043 2498.09,600.709 2497.5,600.5C 2491.18,609.123 2485.35,618.123 2480,627.5C 2479.03,629.392 2478.36,631.392 2478,633.5C 2472.58,677.157 2467.25,720.823 2462,764.5C 2462.16,769.348 2460.32,773.182 2456.5,776C 2420.5,776.667 2384.5,776.667 2348.5,776C 2346.29,774.418 2344.96,772.251 2344.5,769.5C 2364.75,606.515 2384.91,443.515 2405,280.5C 2406.33,278.34 2407.83,276.34 2409.5,274.5 Z"/></g>
<g><path style="opacity:1" fill="#f8bf17" d="M 2855.5,274.5 C 2896.5,274.333 2937.5,274.5 2978.5,275C 2980,275.833 2981.17,277 2982,278.5C 2996,438.465 3009.66,598.465 3023,758.5C 3023.67,763.5 3023.67,768.5 3023,773.5C 3022.17,774.333 3021.33,775.167 3020.5,776C 2983.17,776.667 2945.83,776.667 2908.5,776C 2907.67,775.167 2906.83,774.333 2906,773.5C 2904.78,750.524 2904.11,727.524 2904,704.5C 2903.25,703.874 2902.42,703.374 2901.5,703C 2876.83,702.333 2852.17,702.333 2827.5,703C 2826.38,703.249 2825.38,703.749 2824.5,704.5C 2817.57,726.798 2810.73,749.131 2804,771.5C 2803.17,773.667 2801.67,775.167 2799.5,776C 2763.13,776.827 2726.79,776.66 2690.5,775.5C 2689.35,772.554 2689.18,769.554 2690,766.5C 2743.13,604.771 2796.47,443.104 2850,281.5C 2850.97,278.379 2852.8,276.046 2855.5,274.5 Z M 2896.5,452.5 C 2897.5,452.414 2898.33,452.748 2899,453.5C 2900.34,504.844 2901.34,556.177 2902,607.5C 2901.5,608.667 2900.67,609.5 2899.5,610C 2883.5,610.5 2867.5,610.667 2851.5,610.5C 2866.09,557.723 2881.09,505.057 2896.5,452.5 Z"/></g>
</svg>
